<svg width="220" height="48" fill="none" xmlns="http://www.w3.org/2000/svg"><path fill-rule="evenodd" clip-rule="evenodd" d="M156.863 9.39a6.855 6.855 0 01-1.599 3.65c-2.511 2.935-8.688 4.331-11.365 2.166-1.125-.91-1.066-2.5-.065-3.586 1.723-1.866 5.413-2.312 7.995-2.418a40.753 40.753 0 014.898.135c.201.053.053 0 .136.053zm11.009 16.309a11.016 11.016 0 01-4.862-2.078 7.743 7.743 0 01-2.754-4.108c-.734-2.623 0-6.455.592-9.137.202-.91.492-1.843.676-2.712a27.257 27.257 0 00-3.127-.352 56.387 56.387 0 00-10.003-.035c-4.483.405-7.646 1.526-9.813 4.003-1.078 1.214-1.913 3.304-.592 4.947.9 1.133 2.682 1.948 4.583 2.347 2.999.558 6.095.255 8.925-.874.823-.305 1.587-.734 2.369-1.08-.26.892-1.96 3.157-2.659 3.897a23.295 23.295 0 01-2.635 2.588 13.356 13.356 0 01-2.369 1.573c-5.638 2.782-8.741-2.219-10.95-3.158-2.435-1.032-4.626 4.86-6.669 1.608-1.255-1.989-2.132-6.261-5.135-4.19-.513.364-1.005.755-1.474 1.174-.693.587-1.445 1.174-2.126 1.82-1.185 1.114-4.104 3.462-5.615 3.58a1.297 1.297 0 01-.988-.302 1.28 1.28 0 01-.445-.925 4.222 4.222 0 01.456-2.13 23.332 23.332 0 013.814-5.353c.221-.204.419-.43.592-.675a5.01 5.01 0 00-1.119-.686c-1.676-.763-2.706-.523-4.045.475-2.203 1.643-5.33 4.87-5.638 7.764-.035.305.042.587-.148.734-2.789 2.347-7.865 1.895-8.777-2.782-.201-1.033-.19-2.078-.426-3.122-.859-3.885-3.66-3.521-6.444-1.731a29.334 29.334 0 00-3.482 2.77c-.15.164-.328.302-.527.404.314-.657 3.02-4.66 3.477-5.281.349-.487 1.107-1.35.13-1.825a2.587 2.587 0 00-2.37.252 5.159 5.159 0 00-1.237 1.602 45.563 45.563 0 00-2.209 3.592c-.693 1.244-1.392 2.494-2.055 3.79-.255.494-.302.435-.77.7-.969.534-1.993.962-3.056 1.279-1.332.41-3.482 1.003-4.98.745-2.191-.381-1.185-2.436-.38-3.521.29-.411 1.227-1.356.794-1.89-1.285-1.573-5.555 2.999-9.688 4.255-1.315.399-3.986.95-4.276-.67-.29-1.619 1.303-3.11 2.02-3.702a14.317 14.317 0 013.742-2.078c5.762-2.271 8.593.229 9.547.229a1.965 1.965 0 00.1-1.943 2.723 2.723 0 00-1.38-1.02c-3.393-1.304-8.883.328-11.897 1.62a19.83 19.83 0 00-5.923 3.75c-1.534 1.378-3.624 3.773-3.464 6.15-3.382 1.52-6.793.704-8.487-1.55-2.274-3.016-.983-5.84-2.404-9.079-.592-1.338-1.564-2.382-3.47-2.347-2.902 0-6.266 2.934-8.386 4.624l-1.931 1.685c-.16.14-.184.246-.38.322-.206-1.044-.556-2.206-.822-3.257L25.59 9.93a5.234 5.234 0 00-1.439-2.606c-1.818-1.537-4.045.4-5.49 1.573a39.434 39.434 0 00-3.974 4.178l-1.853 2.236c-1.813 2.125-3.595 4.66-5.33 6.878-.593.77-1.185 1.556-1.777 2.348A44.805 44.805 0 01.503 30.47a2.845 2.845 0 00-.503.493c2.021.16 4.055-.039 6.005-.587a6.947 6.947 0 003.938-2.705c.954-1.174 1.819-2.576 2.701-3.926 1.717-2.63 3.411-5.482 5.289-7.976.467-.63.975-1.23 1.522-1.796.302-.305 1.439-1.49 2.06-.663.622.828.889 4.243 1.001 5.622.154 1.984.261 4.038.593 5.975.272 1.655.894 4.477 2.813 2.8.287-.266.56-.546.817-.84.267-.3.545-.587.811-.851.267-.264.551-.552.823-.84a34.17 34.17 0 014.312-3.984c1.137-.851 3.4-2.078 4.655-.587 2.043 2.453 2.067 5.634 5.816 7.447 2.913 1.415 6.544 1.174 9.51-.193a7.645 7.645 0 011.079-.534c.198.278.45.515.74.698 2.18 1.291 6.212.329 8.368-.376a17.025 17.025 0 003.796-1.878c.734-.451 2.66-1.701 3.346-2.277 0 .247-.136.793-.172 1.098-.118 1.038-.065 2.435.735 3.099 1.534 1.261 6.33-1.14 7.864-1.914l3.4-1.825c-.22.628-.628 1.362-.906 2.013a76.918 76.918 0 00-4.466 15.969c-.118.75-.592 3.21-.207 3.879a.948.948 0 00.918.528c1.256-.105 1.623-2.594 1.972-3.873 1.41-5.17 3.376-12.724 6.515-16.832 1.113-1.46 3.867-5.24 6.828-4.824.71.1 1.184.851 1.516 1.403 1.114 1.978 1.777 3.744 4.033 4.748 2.529 1.109 5.875.587 8.143-.951.274-.218.565-.415.871-.587.373.434.391.957 1.469 1.614a6.54 6.54 0 002.215.816c4.583.862 8.119-1.632 11.275-4.378.385-.329.764-.816 1.149-1.104.32.673.678 1.328 1.072 1.96 2.405 3.328 5.396 1.967 8.434.47 2.007-.98 2.582-.37 4.317.646.653.368 1.332.69 2.031.962 3.388 1.344 6.935.628 9.873-.775a21.965 21.965 0 003.748-2.259 16.277 16.277 0 002.369-2.107l.646-.804c.089.13.592 1.76.752 2.107.776 1.849 1.937 3.88 3.494 4.988 1.558 1.11 2.523.933 4.341.188a20.493 20.493 0 003.228-1.755l.207-.135.196-.176.017.018zM48.018 17.882a2.33 2.33 0 01.297-1.334 2.36 2.36 0 01.997-.944 2.388 2.388 0 012.618.32 2.33 2.33 0 01-.105 3.635 2.382 2.382 0 01-2.996-.085 2.34 2.34 0 01-.811-1.592zm1.907-2.976a2.836 2.836 0 00-1.874 1.125 2.782 2.782 0 00-.495 2.115c.09.549.343 1.059.726 1.465a2.867 2.867 0 003.069.72 2.84 2.84 0 001.312-.988 2.8 2.8 0 00-1.107-4.209 2.867 2.867 0 00-1.631-.228zm-.178 1.673c.503 0 1.344-.135 1.315.475-.03.61-.835.435-1.327.429v-.904h.012zm-.74 2.729h.699v-1.315h.775l.533 1.31h.717l-.592-1.433a.918.918 0 00.606-.716.901.901 0 00-.352-.868c-.468-.353-1.723-.223-2.404-.223v3.245h.018z" fill="#E30613"/><mask id="a" fill="#fff"><path fill-rule="evenodd" clip-rule="evenodd" d="M129.105 36.221h-1.374c-.195.065-.26.799-.314 1.045l-.977 4.52c-.089.416-.474 1.906-.462 2.212h7.45c.137-.347 1.688-7.63 1.671-7.776h-1.446l-1.409 6.455h-1.481c-.053-.487 1.357-5.869 1.333-6.456h-1.427c-.119.276-.593 2.747-.723 3.258-.13.51-.237 1.103-.355 1.637-.053.27-.119.552-.172.81-.03.152-.071.704-.237.757h-1.451l1.368-6.456.006-.005zm21.836 6.62c.115-.792.281-1.576.497-2.347.113-.493.118-.857.367-1.045.249-.188.77-.299.93.1.255.616-.178 2.717-.805 3.28a.698.698 0 01-.495.209.695.695 0 01-.494-.208v.011zm-1.422-3.52c.444-.183.812.081.705.586l-.521 2.295c-.113.481-.054.716-.539.839-1.066.27-.782-1.215-.622-1.884.16-.669.438-1.596.977-1.813v-.024zm2.801-2.724c-1.397 0-1.326-.105-1.409.229l-.166.734c-.077.334-.16.686-.231 1.027-.355-.206-.491-.505-1.184-.388a2.3 2.3 0 00-1.037.529c-1.083.903-2.303 4.923-.183 5.334.627.117.787-.123 1.214-.287l-.45 2.054c1.628 0 1.285.264 1.581-1.027a7.14 7.14 0 01.243-1.01 1.363 1.363 0 001.249.258c2.15-.41 2.63-4.22 2.032-5.281a1.134 1.134 0 00-.977-.587c-.41.012-.806.151-1.132.399l.445-2.002.005.018zm-63.314-.352h-1.457l-1.647 7.77h1.451c.16-.546.439-1.972.593-2.67.124-.587.088-.822.355-.822.693 0 1.137-.07 1.184.687.06.939-.171 2.154.403 2.606a1.68 1.68 0 001.184.252c.101-.117.593-.968.492-1.174-.1-.205-.23-.07-.45-.152-.373-.141-.273-.834-.273-1.362 0-1.174-.219-1.115-.657-1.467l-.053-.053c.746-.205.965-.64 1.25-1.379.112-.318.25-.626.414-.921.26-.405.521-.223.823-.446.063-.357.03-.723-.095-1.063a2.062 2.062 0 00-1.433.417c-.34.308-.587.704-.71 1.144-.652 1.59-.498 1.685-1.99 1.679l.627-3.081-.011.035zm55.841 3.351a15.06 15.06 0 01-.593 2.412c-.45 1.033-1.504 1.303-1.682.587a5.186 5.186 0 01.427-2.512c.379-.84 1.018-1.174 1.818-.493l.03.006zm.9 4.42a8.272 8.272 0 01-.125-1.58c.054-.489.135-.975.243-1.455.113-.552.592-2.441.592-2.776h-1.214l-.106.528c-.379-.21-.539-.586-1.274-.586-1.403 0-2.262 1.508-2.546 2.84-.219 1.003-.255 2.347.468 2.881a1.506 1.506 0 001.463 0c.193-.087.374-.2.538-.334l.474-.428c.095 1.173 0 .88 1.463.88l.024.03zm-40.272-5.817h-1.35l-1.255 5.816h1.326c.178-.587.29-1.262.427-1.866.136-.605 0-.587.533-.587h1.125l-.521 2.453h1.338l1.279-5.822c-1.362 0-1.32-.105-1.397.241l-.184.851c-.089.382-.172.786-.255 1.174h-1.533l.479-2.23-.012-.03zm7.978 5.816a6.752 6.752 0 01-.119-1.567c.184-1.138.758-2.934.977-4.249h-1.356c-.189.863-.391 1.76-.592 2.606-.201.845-.486 1.76-1.184 2.036-1.262.482-.533-1.443-.391-2.042.189-.81.497-1.807.592-2.606h-1.356c-.184.74-.977 3.932-1.025 4.443-.077.904.409 1.538 1.339 1.408.929-.129 1.397-.886 1.67-1.073.059 1.255-.101 1.02 1.433 1.02l.012.024zm7.953 0a4.787 4.787 0 01-.13-1.59c.136-.798.93-3.786.965-4.22h-1.344c-.249 1.027-.64 3.38-1.185 4.108-.177.253-.639.71-1.184.54-.42-.293.107-1.854.225-2.347a21.7 21.7 0 00.539-2.348h-1.338c-.137.411-.989 4.014-1.031 4.408-.178 1.713 1.493 1.901 2.641.768a2.1 2.1 0 01.362-.358c-.012.338.032.675.13.998l1.35.041zm16.458-5.804h-1.344l-1.339 5.804h1.345l.539-2.43c.468 0 .853-.1.977.317.201.681-.071 1.638.545 1.99a1.99 1.99 0 001.042.182 2.86 2.86 0 00.444-1.08c-.722-.2-.592-.088-.675-.933-.059-.587-.178-.834-.592-.992.231-.164.503-.041.989-.98.485-.939.533-.634 1.042-.851a3.22 3.22 0 00-.095-1.039 1.755 1.755 0 00-1.082.213 1.732 1.732 0 00-.736.814c-.503 1.033-.42 1.344-1.557 1.227l.497-2.236v-.006zm-46.661 7.606c.397.499 1.776.722 2.73-.112.87-.757 1.996-3.703 2.481-4.923.166-.417.356-.892.54-1.315.194-.41.362-.831.503-1.262h-1.345c-.272.528-.592 1.655-.787 2.277a17.836 17.836 0 01-.835 2.213c-.137-.705-.22-1.49-.308-2.219-.066-.587-.119-1.76-.237-2.294H92.76l.972 5.458c.07.317.014.65-.157.928a1.274 1.274 0 01-.761.562c-.527.088-.675-.135-1.072-.211-.228.267-.409.57-.533.898h-.006zm9.57-4.736c.16-.305 2.103-2.418 2.369-2.858h-1.635c-.195.317-.438.64-.675.968a7.753 7.753 0 01-.687.945l-.651-1.93h-1.368c.041.369 1.054 2.294 1.184 2.845-.177.276-.97 1.121-1.273 1.491-.213.258-.42.47-.634.734a5.51 5.51 0 00-.592.727h1.587c.296-.328 1.321-1.842 1.51-2.013l.836 2.025h1.415a11.62 11.62 0 00-.687-1.485c-.207-.41-.539-1.032-.699-1.467v.018zm55.575 1.895c.083-.5.193-.996.331-1.484.042-.159.042-.176.202-.217 1.291-.323 1.439.997.846 1.56-.361.34-.864.224-1.379.141zm1.066-4.783h-1.345c-.254 1.21-.551 2.46-.829 3.686-.071.3-.136.587-.207.91-.071.322-.231.622.065.792a4.03 4.03 0 001.777.499c2.86.117 3.168-2.864 1.99-3.586-.593-.376-1.149-.252-1.896-.182l.456-2.119h-.011zm5.063 0h-1.338c-.202.969-.433 1.931-.652 2.894a26.07 26.07 0 00-.586 2.928h1.321l1.297-5.81-.042-.012z"/></mask><path fill-rule="evenodd" clip-rule="evenodd" d="M129.105 36.221h-1.374c-.195.065-.26.799-.314 1.045l-.977 4.52c-.089.416-.474 1.906-.462 2.212h7.45c.137-.347 1.688-7.63 1.671-7.776h-1.446l-1.409 6.455h-1.481c-.053-.487 1.357-5.869 1.333-6.456h-1.427c-.119.276-.593 2.747-.723 3.258-.13.51-.237 1.103-.355 1.637-.053.27-.119.552-.172.81-.03.152-.071.704-.237.757h-1.451l1.368-6.456.006-.005zm21.836 6.62c.115-.792.281-1.576.497-2.347.113-.493.118-.857.367-1.045.249-.188.77-.299.93.1.255.616-.178 2.717-.805 3.28a.698.698 0 01-.495.209.695.695 0 01-.494-.208v.011zm-1.422-3.52c.444-.183.812.081.705.586l-.521 2.295c-.113.481-.054.716-.539.839-1.066.27-.782-1.215-.622-1.884.16-.669.438-1.596.977-1.813v-.024zm2.801-2.724c-1.397 0-1.326-.105-1.409.229l-.166.734c-.077.334-.16.686-.231 1.027-.355-.206-.491-.505-1.184-.388a2.3 2.3 0 00-1.037.529c-1.083.903-2.303 4.923-.183 5.334.627.117.787-.123 1.214-.287l-.45 2.054c1.628 0 1.285.264 1.581-1.027a7.14 7.14 0 01.243-1.01 1.363 1.363 0 001.249.258c2.15-.41 2.63-4.22 2.032-5.281a1.134 1.134 0 00-.977-.587c-.41.012-.806.151-1.132.399l.445-2.002.005.018zm-63.314-.352h-1.457l-1.647 7.77h1.451c.16-.546.439-1.972.593-2.67.124-.587.088-.822.355-.822.693 0 1.137-.07 1.184.687.06.939-.171 2.154.403 2.606a1.68 1.68 0 001.184.252c.101-.117.593-.968.492-1.174-.1-.205-.23-.07-.45-.152-.373-.141-.273-.834-.273-1.362 0-1.174-.219-1.115-.657-1.467l-.053-.053c.746-.205.965-.64 1.25-1.379.112-.318.25-.626.414-.921.26-.405.521-.223.823-.446.063-.357.03-.723-.095-1.063a2.062 2.062 0 00-1.433.417c-.34.308-.587.704-.71 1.144-.652 1.59-.498 1.685-1.99 1.679l.627-3.081-.011.035zm55.841 3.351a15.06 15.06 0 01-.593 2.412c-.45 1.033-1.504 1.303-1.682.587a5.186 5.186 0 01.427-2.512c.379-.84 1.018-1.174 1.818-.493l.03.006zm.9 4.42a8.272 8.272 0 01-.125-1.58c.054-.489.135-.975.243-1.455.113-.552.592-2.441.592-2.776h-1.214l-.106.528c-.379-.21-.539-.586-1.274-.586-1.403 0-2.262 1.508-2.546 2.84-.219 1.003-.255 2.347.468 2.881a1.506 1.506 0 001.463 0c.193-.087.374-.2.538-.334l.474-.428c.095 1.173 0 .88 1.463.88l.024.03zm-40.272-5.817h-1.35l-1.255 5.816h1.326c.178-.587.29-1.262.427-1.866.136-.605 0-.587.533-.587h1.125l-.521 2.453h1.338l1.279-5.822c-1.362 0-1.32-.105-1.397.241l-.184.851c-.089.382-.172.786-.255 1.174h-1.533l.479-2.23-.012-.03zm7.978 5.816a6.752 6.752 0 01-.119-1.567c.184-1.138.758-2.934.977-4.249h-1.356c-.189.863-.391 1.76-.592 2.606-.201.845-.486 1.76-1.184 2.036-1.262.482-.533-1.443-.391-2.042.189-.81.497-1.807.592-2.606h-1.356c-.184.74-.977 3.932-1.025 4.443-.077.904.409 1.538 1.339 1.408.929-.129 1.397-.886 1.67-1.073.059 1.255-.101 1.02 1.433 1.02l.012.024zm7.953 0a4.787 4.787 0 01-.13-1.59c.136-.798.93-3.786.965-4.22h-1.344c-.249 1.027-.64 3.38-1.185 4.108-.177.253-.639.71-1.184.54-.42-.293.107-1.854.225-2.347a21.7 21.7 0 00.539-2.348h-1.338c-.137.411-.989 4.014-1.031 4.408-.178 1.713 1.493 1.901 2.641.768a2.1 2.1 0 01.362-.358c-.012.338.032.675.13.998l1.35.041zm16.458-5.804h-1.344l-1.339 5.804h1.345l.539-2.43c.468 0 .853-.1.977.317.201.681-.071 1.638.545 1.99a1.99 1.99 0 001.042.182 2.86 2.86 0 00.444-1.08c-.722-.2-.592-.088-.675-.933-.059-.587-.178-.834-.592-.992.231-.164.503-.041.989-.98.485-.939.533-.634 1.042-.851a3.22 3.22 0 00-.095-1.039 1.755 1.755 0 00-1.082.213 1.732 1.732 0 00-.736.814c-.503 1.033-.42 1.344-1.557 1.227l.497-2.236v-.006zm-46.661 7.606c.397.499 1.776.722 2.73-.112.87-.757 1.996-3.703 2.481-4.923.166-.417.356-.892.54-1.315.194-.41.362-.831.503-1.262h-1.345c-.272.528-.592 1.655-.787 2.277a17.836 17.836 0 01-.835 2.213c-.137-.705-.22-1.49-.308-2.219-.066-.587-.119-1.76-.237-2.294H92.76l.972 5.458c.07.317.014.65-.157.928a1.274 1.274 0 01-.761.562c-.527.088-.675-.135-1.072-.211-.228.267-.409.57-.533.898h-.006zm9.57-4.736c.16-.305 2.103-2.418 2.369-2.858h-1.635c-.195.317-.438.64-.675.968a7.753 7.753 0 01-.687.945l-.651-1.93h-1.368c.041.369 1.054 2.294 1.184 2.845-.177.276-.97 1.121-1.273 1.491-.213.258-.42.47-.634.734a5.51 5.51 0 00-.592.727h1.587c.296-.328 1.321-1.842 1.51-2.013l.836 2.025h1.415a11.62 11.62 0 00-.687-1.485c-.207-.41-.539-1.032-.699-1.467v.018zm55.575 1.895c.083-.5.193-.996.331-1.484.042-.159.042-.176.202-.217 1.291-.323 1.439.997.846 1.56-.361.34-.864.224-1.379.141zm1.066-4.783h-1.345c-.254 1.21-.551 2.46-.829 3.686-.071.3-.136.587-.207.91-.071.322-.231.622.065.792a4.03 4.03 0 001.777.499c2.86.117 3.168-2.864 1.99-3.586-.593-.376-1.149-.252-1.896-.182l.456-2.119h-.011zm5.063 0h-1.338c-.202.969-.433 1.931-.652 2.894a26.07 26.07 0 00-.586 2.928h1.321l1.297-5.81-.042-.012z" fill="#878787"/><path clip-rule="evenodd" d="M129.105 36.221h-1.374c-.195.065-.26.799-.314 1.045l-.977 4.52c-.089.416-.474 1.906-.462 2.212h7.45c.137-.347 1.688-7.63 1.671-7.776h-1.446l-1.409 6.455h-1.481c-.053-.487 1.357-5.869 1.333-6.456h-1.427c-.119.276-.593 2.747-.723 3.258-.13.51-.237 1.103-.355 1.637-.053.27-.119.552-.172.81-.03.152-.071.704-.237.757h-1.451l1.368-6.456.006-.005zm21.836 6.62c.115-.792.281-1.576.497-2.347.113-.493.118-.857.367-1.045.249-.188.77-.299.93.1.255.616-.178 2.717-.805 3.28a.698.698 0 01-.495.209.695.695 0 01-.494-.208v.011zm-1.422-3.52c.444-.183.812.081.705.586l-.521 2.295c-.113.481-.054.716-.539.839-1.066.27-.782-1.215-.622-1.884.16-.669.438-1.596.977-1.813v-.024zm2.801-2.724c-1.397 0-1.326-.105-1.409.229l-.166.734c-.077.334-.16.686-.231 1.027-.355-.206-.491-.505-1.184-.388a2.3 2.3 0 00-1.037.529c-1.083.903-2.303 4.923-.183 5.334.627.117.787-.123 1.214-.287l-.45 2.054c1.628 0 1.285.264 1.581-1.027a7.14 7.14 0 01.243-1.01 1.363 1.363 0 001.249.258c2.15-.41 2.63-4.22 2.032-5.281a1.134 1.134 0 00-.977-.587c-.41.012-.806.151-1.132.399l.445-2.002.005.018zm-63.314-.352h-1.457l-1.647 7.77h1.451c.16-.546.439-1.972.593-2.67.124-.587.088-.822.355-.822.693 0 1.137-.07 1.184.687.06.939-.171 2.154.403 2.606a1.68 1.68 0 001.184.252c.101-.117.593-.968.492-1.174-.1-.205-.23-.07-.45-.152-.373-.141-.273-.834-.273-1.362 0-1.174-.219-1.115-.657-1.467l-.053-.053c.746-.205.965-.64 1.25-1.379.112-.318.25-.626.414-.921.26-.405.521-.223.823-.446.063-.357.03-.723-.095-1.063a2.062 2.062 0 00-1.433.417c-.34.308-.587.704-.71 1.144-.652 1.59-.498 1.685-1.99 1.679l.627-3.081-.011.035zm55.841 3.351a15.06 15.06 0 01-.593 2.412c-.45 1.033-1.504 1.303-1.682.587a5.186 5.186 0 01.427-2.512c.379-.84 1.018-1.174 1.818-.493l.03.006zm.9 4.42a8.272 8.272 0 01-.125-1.58c.054-.489.135-.975.243-1.455.113-.552.592-2.441.592-2.776h-1.214l-.106.528c-.379-.21-.539-.586-1.274-.586-1.403 0-2.262 1.508-2.546 2.84-.219 1.003-.255 2.347.468 2.881a1.506 1.506 0 001.463 0c.193-.087.374-.2.538-.334l.474-.428c.095 1.173 0 .88 1.463.88l.024.03zm-40.272-5.817h-1.35l-1.255 5.816h1.326c.178-.587.29-1.262.427-1.866.136-.605 0-.587.533-.587h1.125l-.521 2.453h1.338l1.279-5.822c-1.362 0-1.32-.105-1.397.241l-.184.851c-.089.382-.172.786-.255 1.174h-1.533l.479-2.23-.012-.03zm7.978 5.816a6.752 6.752 0 01-.119-1.567c.184-1.138.758-2.934.977-4.249h-1.356c-.189.863-.391 1.76-.592 2.606-.201.845-.486 1.76-1.184 2.036-1.262.482-.533-1.443-.391-2.042.189-.81.497-1.807.592-2.606h-1.356c-.184.74-.977 3.932-1.025 4.443-.077.904.409 1.538 1.339 1.408.929-.129 1.397-.886 1.67-1.073.059 1.255-.101 1.02 1.433 1.02l.012.024zm7.953 0a4.787 4.787 0 01-.13-1.59c.136-.798.93-3.786.965-4.22h-1.344c-.249 1.027-.64 3.38-1.185 4.108-.177.253-.639.71-1.184.54-.42-.293.107-1.854.225-2.347a21.7 21.7 0 00.539-2.348h-1.338c-.137.411-.989 4.014-1.031 4.408-.178 1.713 1.493 1.901 2.641.768a2.1 2.1 0 01.362-.358c-.012.338.032.675.13.998l1.35.041zm16.458-5.804h-1.344l-1.339 5.804h1.345l.539-2.43c.468 0 .853-.1.977.317.201.681-.071 1.638.545 1.99a1.99 1.99 0 001.042.182 2.86 2.86 0 00.444-1.08c-.722-.2-.592-.088-.675-.933-.059-.587-.178-.834-.592-.992.231-.164.503-.041.989-.98.485-.939.533-.634 1.042-.851a3.22 3.22 0 00-.095-1.039 1.755 1.755 0 00-1.082.213 1.732 1.732 0 00-.736.814c-.503 1.033-.42 1.344-1.557 1.227l.497-2.236v-.006zm-46.661 7.606c.397.499 1.776.722 2.73-.112.87-.757 1.996-3.703 2.481-4.923.166-.417.356-.892.54-1.315.194-.41.362-.831.503-1.262h-1.345c-.272.528-.592 1.655-.787 2.277a17.836 17.836 0 01-.835 2.213c-.137-.705-.22-1.49-.308-2.219-.066-.587-.119-1.76-.237-2.294H92.76l.972 5.458c.07.317.014.65-.157.928a1.274 1.274 0 01-.761.562c-.527.088-.675-.135-1.072-.211-.228.267-.409.57-.533.898h-.006zm9.57-4.736c.16-.305 2.103-2.418 2.369-2.858h-1.635c-.195.317-.438.64-.675.968a7.753 7.753 0 01-.687.945l-.651-1.93h-1.368c.041.369 1.054 2.294 1.184 2.845-.177.276-.97 1.121-1.273 1.491-.213.258-.42.47-.634.734a5.51 5.51 0 00-.592.727h1.587c.296-.328 1.321-1.842 1.51-2.013l.836 2.025h1.415a11.62 11.62 0 00-.687-1.485c-.207-.41-.539-1.032-.699-1.467v.018zm55.575 1.895c.083-.5.193-.996.331-1.484.042-.159.042-.176.202-.217 1.291-.323 1.439.997.846 1.56-.361.34-.864.224-1.379.141v0zm1.066-4.783h-1.345c-.254 1.21-.551 2.46-.829 3.686-.071.3-.136.587-.207.91-.071.322-.231.622.065.792a4.03 4.03 0 001.777.499c2.86.117 3.168-2.864 1.99-3.586-.593-.376-1.149-.252-1.896-.182l.456-2.119h-.011zm5.063 0h-1.338c-.202.969-.433 1.931-.652 2.894a26.07 26.07 0 00-.586 2.928h1.321l1.297-5.81-.042-.012z" stroke="#000" stroke-width="2" mask="url(#a)"/><path clip-rule="evenodd" d="M129.105 36.221h-1.374c-.195.065-.26.799-.314 1.045l-.977 4.52c-.089.416-.474 1.906-.462 2.212h7.45c.137-.347 1.688-7.63 1.671-7.776h-1.446l-1.409 6.455h-1.481c-.053-.487 1.357-5.869 1.333-6.456h-1.427c-.119.276-.593 2.747-.723 3.258-.13.51-.237 1.103-.355 1.637-.053.27-.119.552-.172.81-.03.152-.071.704-.237.757h-1.451l1.368-6.456.006-.005zm21.836 6.62c.115-.792.281-1.576.497-2.347.113-.493.118-.857.367-1.045.249-.188.77-.299.93.1.255.616-.178 2.717-.805 3.28a.698.698 0 01-.495.209.695.695 0 01-.494-.208v.011zm-1.422-3.52c.444-.183.812.081.705.586l-.521 2.295c-.113.481-.054.716-.539.839-1.066.27-.782-1.215-.622-1.884.16-.669.438-1.596.977-1.813v-.024zm2.801-2.724c-1.397 0-1.326-.105-1.409.229l-.166.734c-.077.334-.16.686-.231 1.027-.355-.206-.491-.505-1.184-.388a2.3 2.3 0 00-1.037.529c-1.083.903-2.303 4.923-.183 5.334.627.117.787-.123 1.214-.287l-.45 2.054c1.628 0 1.285.264 1.581-1.027a7.14 7.14 0 01.243-1.01 1.363 1.363 0 001.249.258c2.15-.41 2.63-4.22 2.032-5.281a1.134 1.134 0 00-.977-.587c-.41.012-.806.151-1.132.399l.445-2.002.005.018zm-63.314-.352h-1.457l-1.647 7.77h1.451c.16-.546.439-1.972.593-2.67.124-.587.088-.822.355-.822.693 0 1.137-.07 1.184.687.06.939-.171 2.154.403 2.606a1.68 1.68 0 001.184.252c.101-.117.593-.968.492-1.174-.1-.205-.23-.07-.45-.152-.373-.141-.273-.834-.273-1.362 0-1.174-.219-1.115-.657-1.467l-.053-.053c.746-.205.965-.64 1.25-1.379.112-.318.25-.626.414-.921.26-.405.521-.223.823-.446.063-.357.03-.723-.095-1.063a2.062 2.062 0 00-1.433.417c-.34.308-.587.704-.71 1.144-.652 1.59-.498 1.685-1.99 1.679l.627-3.081-.011.035zm55.841 3.351a15.06 15.06 0 01-.593 2.412c-.45 1.033-1.504 1.303-1.682.587a5.186 5.186 0 01.427-2.512c.379-.84 1.018-1.174 1.818-.493l.03.006zm.9 4.42a8.272 8.272 0 01-.125-1.58c.054-.489.135-.975.243-1.455.113-.552.592-2.441.592-2.776h-1.214l-.106.528c-.379-.21-.539-.586-1.274-.586-1.403 0-2.262 1.508-2.546 2.84-.219 1.003-.255 2.347.468 2.881a1.506 1.506 0 001.463 0c.193-.087.374-.2.538-.334l.474-.428c.095 1.173 0 .88 1.463.88l.024.03zm-40.272-5.817h-1.35l-1.255 5.816h1.326c.178-.587.29-1.262.427-1.866.136-.605 0-.587.533-.587h1.125l-.521 2.453h1.338l1.279-5.822c-1.362 0-1.32-.105-1.397.241l-.184.851c-.089.382-.172.786-.255 1.174h-1.533l.479-2.23-.012-.03zm7.978 5.816a6.752 6.752 0 01-.119-1.567c.184-1.138.758-2.934.977-4.249h-1.356c-.189.863-.391 1.76-.592 2.606-.201.845-.486 1.76-1.184 2.036-1.262.482-.533-1.443-.391-2.042.189-.81.497-1.807.592-2.606h-1.356c-.184.74-.977 3.932-1.025 4.443-.077.904.409 1.538 1.339 1.408.929-.129 1.397-.886 1.67-1.073.059 1.255-.101 1.02 1.433 1.02l.012.024zm7.953 0a4.787 4.787 0 01-.13-1.59c.136-.798.93-3.786.965-4.22h-1.344c-.249 1.027-.64 3.38-1.185 4.108-.177.253-.639.71-1.184.54-.42-.293.107-1.854.225-2.347a21.7 21.7 0 00.539-2.348h-1.338c-.137.411-.989 4.014-1.031 4.408-.178 1.713 1.493 1.901 2.641.768a2.1 2.1 0 01.362-.358c-.012.338.032.675.13.998l1.35.041zm16.458-5.804h-1.344l-1.339 5.804h1.345l.539-2.43c.468 0 .853-.1.977.317.201.681-.071 1.638.545 1.99a1.99 1.99 0 001.042.182 2.86 2.86 0 00.444-1.08c-.722-.2-.592-.088-.675-.933-.059-.587-.178-.834-.592-.992.231-.164.503-.041.989-.98.485-.939.533-.634 1.042-.851a3.22 3.22 0 00-.095-1.039 1.755 1.755 0 00-1.082.213 1.732 1.732 0 00-.736.814c-.503 1.033-.42 1.344-1.557 1.227l.497-2.236v-.006zm-46.661 7.606c.397.499 1.776.722 2.73-.112.87-.757 1.996-3.703 2.481-4.923.166-.417.356-.892.54-1.315.194-.41.362-.831.503-1.262h-1.345c-.272.528-.592 1.655-.787 2.277a17.836 17.836 0 01-.835 2.213c-.137-.705-.22-1.49-.308-2.219-.066-.587-.119-1.76-.237-2.294H92.76l.972 5.458c.07.317.014.65-.157.928a1.274 1.274 0 01-.761.562c-.527.088-.675-.135-1.072-.211-.228.267-.409.57-.533.898h-.006zm9.57-4.736c.16-.305 2.103-2.418 2.369-2.858h-1.635c-.195.317-.438.64-.675.968a7.753 7.753 0 01-.687.945l-.651-1.93h-1.368c.041.369 1.054 2.294 1.184 2.845-.177.276-.97 1.121-1.273 1.491-.213.258-.42.47-.634.734a5.51 5.51 0 00-.592.727h1.587c.296-.328 1.321-1.842 1.51-2.013l.836 2.025h1.415a11.62 11.62 0 00-.687-1.485c-.207-.41-.539-1.032-.699-1.467v.018zm55.575 1.895c.083-.5.193-.996.331-1.484.042-.159.042-.176.202-.217 1.291-.323 1.439.997.846 1.56-.361.34-.864.224-1.379.141v0zm1.066-4.783h-1.345c-.254 1.21-.551 2.46-.829 3.686-.071.3-.136.587-.207.91-.071.322-.231.622.065.792a4.03 4.03 0 001.777.499c2.86.117 3.168-2.864 1.99-3.586-.593-.376-1.149-.252-1.896-.182l.456-2.119h-.011zm5.063 0h-1.338c-.202.969-.433 1.931-.652 2.894a26.07 26.07 0 00-.586 2.928h1.321l1.297-5.81-.042-.012z" stroke="url(#paint0_linear)" stroke-width="2" mask="url(#a)"/><path d="M218.685 1.315H181.31v45.37h37.375V1.315z" fill="#fff"/><path d="M218.679 46.685H181.31V1.315h37.369v45.37zM179.989 48H220V0h-40.011v48z" fill="#878787"/><path d="M195.624 18.592l-9.713 9.578h2.168l1.374-1.356 8.108-8.034a31.154 31.154 0 002.238-2.442 7.009 7.009 0 001.777-4.548 5.976 5.976 0 00-2.103-4.695 8.935 8.935 0 00-5.525-1.835 8.933 8.933 0 00-5.484 1.953 6.208 6.208 0 00-1.522 2.155 6.173 6.173 0 00-.486 2.586h1.67a4.953 4.953 0 011.481-3.69c1.084-1.104 2.541-1.492 4.359-1.492 1.723 0 3.133.317 4.234 1.286a4.851 4.851 0 011.276 1.65c.3.636.456 1.328.459 2.03 0 1.214-.556 2.44-1.539 3.79a34.145 34.145 0 01-2.772 3.052v.012zm-4.359 18.504l3.346 5.957h1.884l-5.283-9.032-5.265 9.032h1.848l3.435-6.022.035.065zm6.681.564v-.053a3.06 3.06 0 011.149-1.684 3.112 3.112 0 011.96-.6h.053c1.635 0 2.831.893 3.056 2.29v.046h-6.218zm3.221-3.68c-2.819 0-5.028 2.024-5.028 4.613 0 2.588 2.215 4.606 5.153 4.606a5.954 5.954 0 003.997-1.42l-1.054-1.027a4.502 4.502 0 01-2.961 1.068 3.284 3.284 0 01-2.288-.747 3.222 3.222 0 01-1.147-2.099v-.047h8.202c-.053-3.005-1.966-4.947-4.886-4.947h.012zm12.887.146h-8.161v1.327h3.192v7.6h1.635v-7.6h3.334v-1.327zm.024-1.948h-28.113v-1.485h28.113v1.485zm-.018-5.135h-.095a10.177 10.177 0 01-7.006-3.024 9.993 9.993 0 01-2.882-7.014 9.992 9.992 0 012.882-7.014 10.178 10.178 0 017.006-3.025h.095v-1.62h-.095a11.823 11.823 0 00-8.321 3.416 11.607 11.607 0 00-3.446 8.245c0 3.093 1.239 6.06 3.446 8.246a11.822 11.822 0 008.321 3.416h.095v-1.626z" fill="#878787"/><defs><linearGradient id="paint0_linear" x1="124.21" y1="36.044" x2="124.21" y2="46.261" gradientUnits="userSpaceOnUse"><stop stop-color="#fff"/><stop offset="1" stop-color="#fff" stop-opacity="0"/></linearGradient></defs></svg>