<svg width="18" height="18" fill="none" xmlns="http://www.w3.org/2000/svg"><path d="M16.125 3H14.5v1H16v11H2V4h1.5V3H1.875A.89.89 0 001 3.905v11.19a.89.89 0 00.875.905h14.25a.89.89 0 00.875-.905V3.905A.89.89 0 0016.125 3z" fill="#F32A2D"/><path d="M4 7h1v1H4V7zm3 0h1v1H7V7zm3 0h1v1h-1V7zm3 0h1v1h-1V7zM4 9.5h1v1H4v-1zm3 0h1v1H7v-1zm3 0h1v1h-1v-1zm3 0h1v1h-1v-1zM4 12h1v1H4v-1zm3 0h1v1H7v-1zm3 0h1v1h-1v-1zm3 0h1v1h-1v-1zM5 5a.5.5 0 00.5-.5v-3a.5.5 0 10-1 0v3A.5.5 0 005 5zm8 0a.5.5 0 00.5-.5v-3a.5.5 0 00-1 0v3a.5.5 0 00.5.5zM6.5 3h5v1h-5V3z" fill="#F32A2D"/></svg>