<svg width="16" height="16" fill="none" xmlns="http://www.w3.org/2000/svg"><g clip-path="url(#clip0)" fill="#F32A2D"><path d="M3.027 8.957a.25.25 0 00-.392.258A5.51 5.51 0 008 13.5c.555 0 1.108-.084 1.638-.25a.25.25 0 00.024-.469 34.983 34.983 0 01-3.42-1.738 35.19 35.19 0 01-3.215-2.086zm12.371 1.653a7.29 7.29 0 00-.46-.548.495.495 0 00-.83.16c0 .005-.003.01-.005.015a.493.493 0 00.098.502c.71.781.826 1.203.796 1.292-.062.07-.532.216-1.817-.11a12.688 12.688 0 01-1.034-.311c.23-.264.434-.549.61-.852l.017-.027a5.48 5.48 0 00.696-3.325A5.51 5.51 0 008 2.5a5.48 5.48 0 00-3.325 1.122 5.5 5.5 0 00-1.432 1.62l-.016.027a5.484 5.484 0 00-.432.954 12.265 12.265 0 01-.788-.74C1.083 4.537.973 4.058 1.002 3.969c.062-.07.486-.184 1.52.04a.494.494 0 00.485-.165l.011-.014a.492.492 0 00-.27-.795 7.419 7.419 0 00-.744-.129c-.96-.11-1.588.079-1.868.563-.101.174-.199.471-.085.893.168.627.766 1.388 1.612 2.185.27.254.565.511.88.77a25.8 25.8 0 001.741 1.308 35.272 35.272 0 003.351 2.053 32.719 32.719 0 002.883 1.382c.274.114.543.22.806.318.372.138.73.26 1.072.362l.035.01c.804.24 1.482.366 2.015.375h.054c.676 0 1.134-.2 1.362-.593.284-.489.127-1.135-.464-1.922z"/></g><defs><clipPath id="clip0"><path fill="#fff" d="M0 0h16v16H0z"/></clipPath></defs></svg>