<svg width="30" height="30" fill="none" xmlns="http://www.w3.org/2000/svg"><path d="M12.5 22.5a9.94 9.94 0 006.121-2.11l5.495 5.495 1.768-1.768-5.495-5.495A9.94 9.94 0 0022.5 12.5c0-5.514-4.486-10-10-10s-10 4.486-10 10 4.486 10 10 10zm0-17.5c4.136 0 7.5 3.364 7.5 7.5S16.636 20 12.5 20 5 16.636 5 12.5 8.364 5 12.5 5z" fill="#fff"/><path d="M14.265 10.732A2.49 2.49 0 0115 12.5h2.5a4.971 4.971 0 00-1.468-3.535c-1.892-1.89-5.173-1.89-7.065 0l1.765 1.77c.95-.948 2.588-.945 3.533-.002z" fill="#fff"/></svg>