<svg width="35" height="40" fill="none" xmlns="http://www.w3.org/2000/svg"><g clip-path="url(#clip0)"><path d="M31.25 2.5H3.75A3.75 3.75 0 000 6.25v27.5a3.75 3.75 0 003.75 3.75h27.5A3.75 3.75 0 0035 33.75V6.25a3.75 3.75 0 00-3.75-3.75zm-1.28 24.013l-1.172 5.078a1.172 1.172 0 01-1.142.909C15.156 32.5 5 22.366 5 9.844a1.227 1.227 0 01.909-1.142l5.078-1.172c.086-.018.175-.028.263-.03a1.271 1.271 0 011.077.71l2.344 5.469c.058.147.09.303.095.462-.02.347-.174.672-.43.907l-2.96 2.421a18.118 18.118 0 008.655 8.655l2.421-2.96c.235-.256.56-.41.907-.43.158.005.315.037.462.095l5.469 2.344A1.27 1.27 0 0130 26.25a1.364 1.364 0 01-.03.263z" fill="#8AC44B"/></g><defs><clipPath id="clip0"><path fill="#fff" d="M0 0h35v40H0z"/></clipPath></defs></svg>