<svg width="25" height="26" fill="none" xmlns="http://www.w3.org/2000/svg"><path d="M22.321.786H2.68A2.679 2.679 0 000 3.464v19.643a2.679 2.679 0 002.679 2.679H22.32A2.679 2.679 0 0025 23.107V3.464A2.679 2.679 0 0022.321.786zm-.914 17.152l-.837 3.627a.837.837 0 01-.816.65c-8.928 0-16.183-7.239-16.183-16.184a.876.876 0 01.65-.815l3.627-.837c.062-.013.124-.02.188-.022a.908.908 0 01.77.507l1.673 3.907a1 1 0 01.068.33.949.949 0 01-.307.647l-2.114 1.73a12.94 12.94 0 006.181 6.182l1.73-2.114a.949.949 0 01.648-.307.997.997 0 01.33.067l3.906 1.675a.906.906 0 01.508.769.967.967 0 01-.022.188z" fill="#8AC44B"/></svg>